<?xml version="1.0" encoding="utf-8"?>
<!-- Generator: Adobe Illustrator 24.1.1, SVG Export Plug-In . SVG Version: 6.00 Build 0)  -->
<svg version="1.1" id="Layer_1" xmlns="http://www.w3.org/2000/svg" xmlns:xlink="http://www.w3.org/1999/xlink" x="0px" y="0px"
	 viewBox="0 0 512 512" style="enable-background:new 0 0 512 512;" xml:space="preserve">
<g>
	<path d="M256,6.3C114.6,6.3,0,121,0,262.3c0,113.2,73.3,209.1,175,242.9c12.9,2.4,17.5-5.5,17.5-12.4c0-6.1-0.1-22.2-0.2-43.5
		C121,464.8,106,415,106,415c-11.7-29.5-28.5-37.4-28.5-37.4c-23.2-15.8,1.8-15.5,1.8-15.5c25.7,1.7,39.2,26.3,39.2,26.3
		c22.8,39.2,59.9,27.8,74.6,21.3c2.2-16.5,8.9-27.8,16.2-34.2C152.4,369.1,92.7,347.1,92.7,249c0-28,9.9-50.8,26.3-68.8
		c-2.8-6.4-11.5-32.5,2.3-67.8c0,0,21.4-6.8,70.4,26.3c20.5-5.7,42.3-8.5,64-8.7c21.8,0.1,43.5,3,64,8.7
		c48.7-33.1,70.1-26.3,70.1-26.3c13.7,35.3,5.1,61.3,2.6,67.8c16.2,17.9,26.2,40.8,26.2,68.8c0,98.3-59.8,120-116.7,126.3
		c8.9,7.7,17.2,23.4,17.2,47.3c0,34.2-0.3,61.8-0.3,70.2c0,6.7,4.5,14.7,17.7,12.1C438.7,471.3,512,375.3,512,262.3
		C512,121,397.4,6.3,256,6.3L256,6.3z"/>
</g>
</svg>
