<?xml version="1.0" encoding="utf-8"?>
<!-- Generator: Adobe Illustrator 24.1.1, SVG Export Plug-In . SVG Version: 6.00 Build 0)  -->
<svg version="1.1" id="Layer_1" xmlns="http://www.w3.org/2000/svg" xmlns:xlink="http://www.w3.org/1999/xlink" x="0px" y="0px"
	 viewBox="0 0 512 512" style="enable-background:new 0 0 512 512;" xml:space="preserve">
<style type="text/css">
	.st0{fill:#E3E3E3;}
	.st1{fill:#CFCFCF;}
	.st2{fill:#D54B3D;}
	.st3{fill:#D72B27;}
</style>
<g>
	<path class="st0" d="M479.4,450.2H32c-17.3,0-32-14.2-32-32V95.1c0-17.3,14.2-32,32-32h447.3c17.3,0,32,14.2,32,32v323.2
		C511.3,436.1,497.2,450.2,479.4,450.2"/>
	<polyline class="st1" points="64,169.6 64,450.2 218.8,325.7 64,169.6 	"/>
	<path class="st2" d="M32,450.2c-17.8,0-32-14.2-32-32V94.6c0-17.8,14.2-21,32-21s32,3.7,32,21v355.6H32"/>
	<path class="st3" d="M32,78.2c22.8,0,27.4,6.8,27.4,16.4v351H32c-15.1,0-27.4-12.3-27.4-27.4V94.6C4.6,84.6,9.2,78.2,32,78.2
		 M32,73.6c-17.8,0-32,3.7-32,21v323.6c0,17.8,14.2,32,32,32h32V94.6C64,76.8,49.8,73.6,32,73.6"/>
	<path class="st2" d="M479.4,450.2h-32V93.7c0-17.8,14.2-20.1,32-20.1c17.8,0,32,2.3,32,20.1v325
		C511.3,436.1,497.2,450.2,479.4,450.2"/>
	<path class="st3" d="M479.4,78.2c20.5,0,27.4,4.1,27.4,15.5v325c0,15.1-12.3,27.4-27.4,27.4H452V93.7
		C452,81.9,458.8,78.2,479.4,78.2 M479.4,73.6c-17.8,0-32,2.3-32,20.1v357h32c17.8,0,32-14.2,32-32v-325
		C511.3,75.9,497.2,73.6,479.4,73.6"/>
	<g>
		<defs>
			<path id="SVGID_1_" d="M506.7,102.4L452,142.5v303.6h27.4c15.1,0,27.4-12.3,27.4-27.4V102.4"/>
		</defs>
		<clipPath id="SVGID_2_">
			<use xlink:href="#SVGID_1_"  style="overflow:visible;"/>
		</clipPath>
		<g style="clip-path:url(#SVGID_2_);">
			
				<image style="overflow:visible;" width="60" height="360" xlink:href="F2DF78CC.jpg"  transform="matrix(0.9643 0 0 -0.9643 450.654 448.0428)">
			</image>
		</g>
	</g>
	<g>
		<defs>
			<polyline id="SVGID_3_" points="4.6,108.7 4.6,109.8 59.4,165 59.4,143.1 20.6,115.2 4.6,108.7 			"/>
		</defs>
		<clipPath id="SVGID_4_">
			<use xlink:href="#SVGID_3_"  style="overflow:visible;"/>
		</clipPath>
		<g style="clip-path:url(#SVGID_4_);">
			
				<image style="overflow:visible;" width="60" height="61" xlink:href="F2DF78CD.jpg"  transform="matrix(0.9643 0 0 -0.9643 3.2391 166.48)">
			</image>
		</g>
	</g>
	<g>
		<defs>
			<polyline id="SVGID_5_" points="447.4,145.9 257.1,285.4 64,146.4 64,149.5 256.6,288.2 255.2,296.4 218.8,325.7 342.4,450.2 
				447.4,450.2 447.4,145.9 			"/>
		</defs>
		<clipPath id="SVGID_6_">
			<use xlink:href="#SVGID_5_"  style="overflow:visible;"/>
		</clipPath>
		<g style="clip-path:url(#SVGID_6_);">
			
				<image style="overflow:visible;" width="401" height="319" xlink:href="F2DF78CB.jpg"  transform="matrix(0.9643 0 0 -0.9643 62.0587 451.8999)">
			</image>
		</g>
	</g>
	<g>
		<defs>
			<polyline id="SVGID_7_" points="64,149.5 64,169.6 218.8,325.7 255.2,296.4 256.6,288.2 64,149.5 			"/>
		</defs>
		<clipPath id="SVGID_8_">
			<use xlink:href="#SVGID_7_"  style="overflow:visible;"/>
		</clipPath>
		<g style="clip-path:url(#SVGID_8_);">
			
				<image style="overflow:visible;" width="203" height="186" xlink:href="F2DF78D4.jpg"  transform="matrix(0.9643 0 0 -0.9643 62.0587 327.5108)">
			</image>
		</g>
	</g>
	<g>
		<defs>
			<path id="SVGID_9_" d="M59.4,143.1V165l4.6,4.6v-20.1v-3.1L59.4,143.1 M2.7,107.9l1.9,1.9v-1.1L2.7,107.9"/>
		</defs>
		<clipPath id="SVGID_10_">
			<use xlink:href="#SVGID_9_"  style="overflow:visible;"/>
		</clipPath>
		<g style="clip-path:url(#SVGID_10_);">
			
				<image style="overflow:visible;" width="66" height="67" xlink:href="F2DF78D7.jpg"  transform="matrix(0.9643 0 0 -0.9643 1.3106 171.3013)">
			</image>
		</g>
	</g>
	<g>
		<defs>
			<path id="SVGID_11_" d="M511.3,99l-4.6,3.3v316.4c0,15.1-12.3,27.4-27.4,27.4H452V142.5l-4.6,3.3v304.4h32
				c17.8,0,32-14.2,32-31.5V99"/>
		</defs>
		<clipPath id="SVGID_12_">
			<use xlink:href="#SVGID_11_"  style="overflow:visible;"/>
		</clipPath>
		<g style="clip-path:url(#SVGID_12_);">
			
				<image style="overflow:visible;" width="69" height="367" xlink:href="F2DF78D5.jpg"  transform="matrix(0.9643 0 0 -0.9643 445.8327 451.8998)">
			</image>
		</g>
	</g>
	<path class="st2" d="M255.2,296.4L13.8,121.1C-0.4,110.6-4.5,90.5,6,76.4S37,59,51.6,69.5l204,148.4L461.1,67.7
		c14.2-10.5,34.2-7.3,44.7,7.3c10.5,14.2,7.3,34.2-7.3,44.7L255.2,296.4z"/>
	<path class="st3" d="M479.4,65.9L479.4,65.9c8.7,0,16.9,4.1,22.4,11.4c8.7,12.3,5.9,29.2-5.9,38.3L255.2,290.9L16.5,117.5
		C4.2,108.3,1,91,9.7,79.1c5-6.8,13.7-11.4,22.8-11.4c5.9,0,11.9,1.8,16.4,5.5l203.6,147.9l2.7,1.8l2.7-1.8l205-150.2
		C467.9,67.7,473.4,65.9,479.4,65.9z M479.4,61.3c-6.4,0-13.2,1.8-18.7,5.9L255.2,217.4L51.2,69.1C45.7,65,38.9,63.1,32,63.1
		c-10,0-20.1,4.6-26.5,13.2c-10,14.2-5.9,34.2,8.2,44.7l241.5,175.7l242.8-177.1c14.2-10.5,17.3-30.1,7.3-44.7
		C499,65.9,489.4,61.3,479.4,61.3z"/>
</g>
</svg>
